HIERARCHY
ROOT Hips
{
	OFFSET 0.000000 0.000000 0.000000
	CHANNELS 6 Xposition Yposition Zposition Zrotation Xrotation Yrotation
	JOINT Spine
	{
		OFFSET 2.740122 22.241188 -1.316808
		CHANNELS 3 Zrotation Xrotation Yrotation
		JOINT Chest
		{
			OFFSET 2.273691 16.837531 0.114178
			CHANNELS 3 Zrotation Xrotation Yrotation
			JOINT Neck
			{
				OFFSET -7.595728 5.275534 -0.559377
				CHANNELS 3 Zrotation Xrotation Yrotation
				JOINT Head
				{
					OFFSET 11.849545 17.906582 0.096122
					CHANNELS 3 Zrotation Xrotation Yrotation
					End Site
					{
						OFFSET 0.000000 -5.000000 0.000000
					}
				}
			}
			JOINT LeftShoulder
			{
				OFFSET -3.270959 0.367309 -13.996135
				CHANNELS 3 Zrotation Xrotation Yrotation
				JOINT LeftElbow
				{
					OFFSET -3.234497 -29.606544 -11.889122
					CHANNELS 3 Zrotation Xrotation Yrotation
					JOINT LeftWrist
					{
						OFFSET 12.783880 -20.775615 -1.489150
						CHANNELS 3 Zrotation Xrotation Yrotation
						End Site
						{
							OFFSET 0.000000 -5.000000 0.000000
						}
					}
				}
			}
			JOINT RightShoulder
			{
				OFFSET -6.600043 -0.879579 13.636656
				CHANNELS 3 Zrotation Xrotation Yrotation
				JOINT RightElbow
				{
					OFFSET -3.943187 -27.191920 13.127687
					CHANNELS 3 Zrotation Xrotation Yrotation
					JOINT RightWrist
					{
						OFFSET 10.720887 -23.389477 4.326343
						CHANNELS 3 Zrotation Xrotation Yrotation
						End Site
						{
							OFFSET 0.000000 -5.000000 0.000000
						}
					}
				}
			}
		}
	}
	JOINT LeftHip
	{
		OFFSET 7.203511 -0.775316 -8.648693
		CHANNELS 3 Zrotation Xrotation Yrotation
		JOINT LeftKnee
		{
			OFFSET 0.217292 -48.336496 -4.524339
			CHANNELS 3 Zrotation Xrotation Yrotation
			JOINT LeftAnkle
			{
				OFFSET -17.320827 -34.788190 4.062581
				CHANNELS 3 Zrotation Xrotation Yrotation
				JOINT LeftToe
				{
					OFFSET 17.871898 -9.253383 2.374824
					CHANNELS 3 Zrotation Xrotation Yrotation
					End Site
					{
						OFFSET 0.000000 -5.000000 0.000000
					}
				}
			}
		}
	}
	JOINT RightHip
	{
		OFFSET 4.745025 -1.278085 9.448461
		CHANNELS 3 Zrotation Xrotation Yrotation
		JOINT RightKnee
		{
			OFFSET 1.466590 -46.826591 5.494640
			CHANNELS 3 Zrotation Xrotation Yrotation
			JOINT RightAnkle
			{
				OFFSET -6.468264 -39.717531 -5.495883
				CHANNELS 3 Zrotation Xrotation Yrotation
				JOINT RightToe
				{
					OFFSET 19.327645 -3.934717 1.535781
					CHANNELS 3 Zrotation Xrotation Yrotation
					End Site
					{
						OFFSET 0.000000 -5.000000 0.000000
					}
				}
			}
		}
	}
}
MOTION
Frames: 10
Frame Time: 0.008333
-245.999030 102.381686 -47.402174 -1.992399 -1.624722 -112.442493 -0.000000 0.000000 0.000000 4.877685 2.127004 3.293286 -2.245390 0.310734 -0.185079 -0.000000 0.000000 0.000000 -4.966390 -3.233291 2.223066 -5.000000 4.320310 4.615937 -0.000000 0.000000 0.000000 -3.199562 -1.629691 -1.339573 1.399652 0.000000 -1.267747 -0.000000 0.000000 0.000000 -1.280888 -0.575789 0.110930 5.000000 1.092045 0.763368 -3.153536 -2.179487 -5.333331 -0.000000 0.000000 0.000000 -2.401996 -10.753093 -0.837054 -5.000000 18.385839 5.000000 -20.000000 1.486618 -13.920296 -0.000000 0.000000 0.000000
-246.615790 102.398349 -47.236713 -2.021951 -1.682735 -111.484671 -0.000000 0.000000 0.000000 4.937591 2.070162 3.220879 -2.216490 0.580529 -0.356460 -0.000000 0.000000 0.000000 -4.581076 -3.585139 2.105991 -5.000000 4.072606 4.374691 -0.000000 0.000000 0.000000 -3.250200 -1.303661 -1.403923 1.541247 0.000000 -1.270657 -0.000000 0.000000 0.000000 -1.385830 -0.351544 0.123931 5.000000 1.376930 0.552890 -2.949257 -2.568884 -6.046011 -0.000000 0.000000 0.000000 -2.211011 -11.053000 -0.811939 -5.000000 17.558419 5.000000 -20.000000 1.317296 -14.830356 -0.000000 0.000000 0.000000
-247.243817 102.416203 -47.093114 -2.063256 -1.710179 -110.549458 -0.000000 0.000000 0.000000 5.115225 2.009119 3.148536 -2.323475 0.903843 -0.559780 -0.000000 0.000000 0.000000 -4.328604 -3.896749 2.036829 -5.000000 3.828015 4.135178 -0.000000 0.000000 0.000000 -3.333219 -0.948490 -1.487409 1.622865 0.000000 -1.292320 -0.000000 0.000000 0.000000 -1.474537 -0.072066 0.136790 5.000000 1.686759 0.336513 -2.894026 -3.020014 -6.936746 -0.000000 0.000000 0.000000 -2.023755 -11.298214 -0.784024 -5.000000 16.635071 5.000000 -20.000000 1.151215 -15.649539 -0.000000 0.000000 0.000000
-247.875500 102.418700 -46.951648 -2.080930 -1.744846 -109.562794 -0.000000 0.000000 0.000000 5.374693 1.895207 3.011351 -2.461321 1.262251 -0.783786 -0.000000 0.000000 0.000000 -4.177971 -4.160631 2.002440 -5.000000 3.578321 3.893548 -0.000000 0.000000 0.000000 -3.464180 -0.614597 -1.591202 1.693271 0.000000 -1.275326 -0.000000 0.000000 0.000000 -1.586643 0.197318 0.152125 5.000000 1.948656 0.159691 -2.717871 -3.442602 -7.713036 -0.000000 0.000000 0.000000 -1.887775 -11.545933 -0.766536 -5.000000 15.647641 5.000000 -19.403109 0.996681 -16.340794 -0.000000 0.000000 0.000000
-248.507062 102.410497 -46.809950 -2.073847 -1.794528 -108.589664 -0.000000 0.000000 0.000000 5.488231 1.782542 2.869700 -2.455089 1.493594 -0.929970 -0.000000 0.000000 0.000000 -4.001094 -4.498068 1.965142 -5.000000 3.390775 3.696972 -0.000000 0.000000 0.000000 -3.458097 -0.338348 -1.621633 1.755146 0.000000 -1.264140 -0.000000 0.000000 0.000000 -1.734476 0.446884 0.171084 5.000000 2.204147 -0.003819 -2.531492 -3.872019 -8.490230 -0.000000 0.000000 0.000000 -1.805262 -11.793265 -0.760133 -5.000000 14.639975 5.000000 -18.871846 0.850599 -17.098344 -0.000000 0.000000 0.000000
-249.146698 102.396777 -46.674707 -2.063776 -1.847472 -107.635136 -0.000000 0.000000 0.000000 5.612697 1.669635 2.728930 -2.469274 1.703136 -1.061895 -0.000000 0.000000 0.000000 -3.744816 -4.768753 1.894382 -5.000000 3.163705 3.485102 -0.000000 0.000000 0.000000 -3.445692 -0.080181 -1.646940 1.790160 0.000000 -1.246718 -0.000000 0.000000 0.000000 -1.918726 0.712523 0.194647 5.000000 2.450681 -0.150469 -2.320986 -4.271783 -9.189028 -0.000000 0.000000 0.000000 -1.763623 -12.023207 -0.761595 -5.000000 13.577408 4.858446 -18.399931 0.715020 -17.759099 -0.000000 0.000000 0.000000
-249.784521 102.365706 -46.545245 -2.024817 -1.905107 -106.671671 -0.000000 0.000000 0.000000 5.729412 1.527125 2.549912 -2.462809 1.881023 -1.174356 -0.000000 0.000000 0.000000 -3.492886 -5.018191 1.824430 -5.000000 2.947632 3.284427 -0.000000 0.000000 0.000000 -3.414669 0.172564 -1.662803 1.859004 0.000000 -1.226369 -0.000000 0.000000 0.000000 -2.102124 0.948902 0.218307 5.000000 2.705746 -0.299875 -2.161488 -4.712089 -9.983410 -0.000000 0.000000 0.000000 -1.763845 -12.259745 -0.772500 -5.000000 12.439233 4.501937 -17.920859 0.580386 -18.233268 -0.000000 0.000000 0.000000
-250.429474 102.327223 -46.417554 -1.981958 -1.963842 -105.739630 -0.000000 0.000000 0.000000 5.854118 1.399103 2.390961 -2.481009 2.017431 -1.259922 -0.000000 0.000000 0.000000 -3.244126 -5.248413 1.754888 -5.000000 2.719747 3.082246 -0.000000 0.000000 0.000000 -3.383473 0.388831 -1.674298 1.913929 0.000000 -1.198516 -0.000000 0.000000 0.000000 -2.297424 1.203765 0.244401 5.000000 2.933578 -0.428906 -2.011598 -5.142431 -10.755127 -0.000000 0.000000 0.000000 -1.806119 -12.480965 -0.792129 -5.000000 11.226064 4.145787 -17.412033 0.443681 -18.519551 -0.000000 0.000000 0.000000
-251.073834 102.276204 -46.293581 -1.930037 -2.044738 -104.817965 -0.000000 0.000000 0.000000 5.966603 1.259392 2.216878 -2.513436 2.144877 -1.339330 -0.000000 0.000000 0.000000 -3.015233 -5.465304 1.692140 -5.000000 2.510675 2.894361 -0.000000 0.000000 0.000000 -3.357028 0.577670 -1.684828 1.981326 0.000000 -1.150502 -0.000000 0.000000 0.000000 -2.502873 1.458090 0.272419 5.000000 3.139504 -0.543177 -1.891310 -5.568112 -11.525415 -0.000000 0.000000 0.000000 -1.915058 -12.707758 -0.827252 -5.000000 9.980292 3.799308 -16.846961 0.296096 -18.703513 -0.000000 0.000000 0.000000
-251.732483 102.201393 -46.189799 -1.881868 -2.085987 -103.866595 -0.000000 0.000000 0.000000 6.024065 1.115290 2.034251 -2.439026 2.264275 -1.417074 -0.000000 0.000000 0.000000 -2.694457 -5.634862 1.592977 -5.000000 2.287187 2.700188 -0.000000 0.000000 0.000000 -3.271920 0.796879 -1.671414 2.081533 0.000000 -1.102714 -0.000000 0.000000 0.000000 -2.621484 1.756945 0.293127 5.000000 3.323853 -0.639241 -1.512810 -5.922663 -12.018890 -0.000000 0.000000 0.000000 -2.095632 -12.964490 -0.880596 -5.000000 8.905519 3.449998 -16.233166 0.132071 -18.926559 -0.000000 0.000000 0.000000
